{"title":"Moka Minaduki (aka Rinako) - Sky Angel vol. 178 (Uncensored)","uid":10824167,"size":1097343547,"categoryP":"porn","categoryS":"movie_clips","magnet":"?xt=urn:btih:d80fc4e425386b4757ef511cdf626eaa43dc4e26&amp;dn=Moka+Minaduki+%28aka+Rinako%29+-+Sky+Angel+vol.+178+%28Uncensored%29&amp;tr=udp%3A%2F%2Ftracker.openbittorrent.com%3A80&amp;tr=udp%3A%2F%2Fopen.demonii.com%3A1337&amp;tr=udp%3A%2F%2Ftracker.coppersurfer.tk%3A6969&amp;tr=udp%3A%2F%2Fexodus.desync.com%3A6969","seeders":0,"leechers":1,"uploader":"ThousandPeers","files":-1,"time":1408566224,"description":"Format                                   : MPEG-4\nFormat profile                           : Base Media\nCodec ID                                 : isom\nFile size                                : 1.02 GiB\nDuration                                 : 1h 49mn\nOverall bit rate mode                    : Constant\nOverall bit rate                         : 1 328 Kbps\nEncoded date                             : UTC 2014-06-19 08:21:56\nTagged date                              : UTC 2014-06-19 08:21:56\n\nVideo\nID                                       : 1\nFormat                                   : AVC\nFormat/Info                              : Advanced Video Codec\nFormat profile                           : &lt;a class=&quot;__cf_email__&quot; href=&quot;/cdn-cgi/l/email-protection&quot; data-cfemail=&quot;99d1f0fef1d9d5aab7a9&quot;&gt;[email&amp;#160;protected]&lt;/a&gt;&lt;script cf-hash='f9e31' type=&quot;text/javascript&quot;&gt;\n/* &lt;![CDATA[ */!function(){try{var t=&quot;currentScript&quot;in document?document.currentScript:function(){for(var t=document.getElementsByTagName(&quot;script&quot;),e=t.length;e--;)if(t[e].getAttribute(&quot;cf-hash&quot;))return t[e]}();if(t&amp;&amp;t.previousSibling){var e,r,n,i,c=t.previousSibling,a=c.getAttribute(&quot;data-cfemail&quot;);if(a){for(e=&quot;&quot;,r=parseInt(a.substr(0,2),16),n=2;a.length-n;n+=2)i=parseInt(a.substr(n,2),16)^r,e+=String.fromCharCode(i);e=document.createTextNode(e),c.parentNode.replaceChild(e,c)}}}catch(u){}}();/* ]]&gt; */&lt;/script&gt;\nFormat settings, CABAC                   : No\nFormat settings, ReFrames                : 1 frame\nFormat settings, GOP                     : M=1, N=33\nCodec ID                                 : avc1\nCodec ID/Info                            : Advanced Video Coding\nDuration                                 : 1h 49mn\nSource duration                          : 1h 49mn\nBit rate mode                            : Constant\nBit rate                                 : 1 141 Kbps\nNominal bit rate                         : 1 200 Kbps\nWidth                                    : 720 pixels\nHeight                                   : 404 pixels\nDisplay aspect ratio                     : 16:9\nFrame rate mode                          : Constant\nFrame rate                               : 29.970 fps\nStandard                                 : NTSC\nColor space                              : YUV\nChroma subsampling                       : 4:2:0\nBit depth                                : 8 bits\nScan type                                : Progressive\nBits/(Pixel*Frame)                       : 0.131\nStream size                              : 897 MiB (86%)\nSource stream size                       : 943 MiB (90%)\nLanguage                                 : English\nEncoded date                             : UTC 2014-06-19 08:21:56\nTagged date                              : UTC 2014-06-19 08:21:56\nmdhd_Duration                            : 6584616\nColor primaries                          : BT.601 NTSC\nTransfer characteristics                 : BT.601\nMatrix coefficients                      : BT.601\n\nAudio\nID                                       : 2\nFormat                                   : AAC\nFormat/Info                              : Advanced Audio Codec\nFormat profile                           : LC\nCodec ID                                 : 40\nDuration                                 : 1h 49mn\nBit rate mode                            : Constant\nBit rate                                 : 126 Kbps\nChannel(s)                               : 2 channels\nChannel positions                        : Front: L R\nSampling rate                            : 48.0 KHz\nCompression mode                         : Lossy\nStream size                              : 99.1 MiB (9%)","torrent":{"xt":"urn:btih:d80fc4e425386b4757ef511cdf626eaa43dc4e26","amp;dn":"Moka+Minaduki+%28aka+Rinako%29+-+Sky+Angel+vol.+178+%28Uncensored%29","amp;tr":["udp%3A%2F%2Ftracker.openbittorrent.com%3A80","udp%3A%2F%2Fopen.demonii.com%3A1337","udp%3A%2F%2Ftracker.coppersurfer.tk%3A6969","udp%3A%2F%2Fexodus.desync.com%3A6969"],"infoHash":"d80fc4e425386b4757ef511cdf626eaa43dc4e26","infoHashBuffer":{"type":"Buffer","data":[216,15,196,228,37,56,107,71,87,239,81,28,223,98,110,170,67,220,78,38]},"announce":[],"urlList":[]}}